#Comment line ignore any data following # character 
#Hierarchical Translation and Rotation (.htr) file 
[Header]	
#Header keywords are followed by a single value 
FileType HTR		#Single word string
DataType HTRS		#Translation followed by rotation and scale data
FileVersion 1		#integer
NumSegments 84		#integer
NumFrames 2		#integer
DataFrameRate 30		#integer, data frame rate in this file
EulerRotationOrder ZYX
CalibrationUnits mm
RotationUnits Degrees
GlobalAxisofGravity Y
BoneLengthAxis Y
ScaleFactor 1.00
[SegmentNames&Hierarchy]
#CHILD	PARENT
MASTER GLOBAL
root MASTER
chest root
L_mid_tent01 root
R_mid_tent01 root
spine01 root
Bip01_Neck chest
L_humerus chest
R_humerus chest
weapon_bone chest
Bip01_Head Bip01_Neck
eye_left_bone Bip01_Head
eye_right_bone Bip01_Head
L_forearm L_humerus
L_front_hand L_forearm
L_weapon_bone L_forearm
L_front_hand01_01 L_front_hand
L_front_hand02_01 L_front_hand
L_front_hand03_01 L_front_hand
L_front_hand01_02 L_front_hand01_01
L_front_hand02_02 L_front_hand02_01
L_front_hand03_02 L_front_hand03_01
R_forearm R_humerus
R_front_hand R_forearm
R_weapon_bone R_forearm
R_front_hand01_01 R_front_hand
R_front_hand02_01 R_front_hand
R_front_hand03_01 R_front_hand
R_front_hand01_02 R_front_hand01_01
R_front_hand02_02 R_front_hand02_01
R_front_hand03_02 R_front_hand03_01
null_rope01_connect L_mid_tent01
Rope1_Seg01 null_rope01_connect
Rope1_Seg02 Rope1_Seg01
Rope1_Seg03 Rope1_Seg02
Rope1_Seg04 Rope1_Seg03
Rope1_Seg05 Rope1_Seg04
Rope1_Seg06 Rope1_Seg05
Rope1_Seg07 Rope1_Seg06
Rope1_Seg09 Rope1_Seg07
L_mid_hand01 Rope1_Seg09
L_mid_hand02 Rope1_Seg09
L_mid_hand03 Rope1_Seg09
null_rope02_connect R_mid_tent01
Rope2_Seg01 null_rope02_connect
Rope2_Seg02 Rope2_Seg01
Rope2_Seg03 Rope2_Seg02
Rope2_Seg04 Rope2_Seg03
Rope2_Seg05 Rope2_Seg04
Rope2_Seg06 Rope2_Seg05
Rope2_Seg07 Rope2_Seg06
Rope2_Seg09 Rope2_Seg07
R_mid_hand01 Rope2_Seg09
R_mid_hand02 Rope2_Seg09
R_mid_hand03 Rope2_Seg09
spine02 spine01
spine03 spine02
pelvis spine03
null_rope03_connect pelvis
null_rope04_connect pelvis
Rope3_Seg01 null_rope03_connect
Rope3_Seg02 Rope3_Seg01
Rope3_Seg03 Rope3_Seg02
Rope3_Seg04 Rope3_Seg03
Rope3_Seg05 Rope3_Seg04
Rope3_Seg06 Rope3_Seg05
Rope3_Seg07 Rope3_Seg06
Rope3_Seg08 Rope3_Seg07
Rope3_Seg09 Rope3_Seg08
R_rear_hand01 Rope3_Seg09
R_rear_hand02 Rope3_Seg09
R_rear_hand03 Rope3_Seg09
Rope4_Seg01 null_rope04_connect
Rope4_Seg02 Rope4_Seg01
Rope4_Seg03 Rope4_Seg02
Rope4_Seg04 Rope4_Seg03
Rope4_Seg05 Rope4_Seg04
Rope4_Seg06 Rope4_Seg05
Rope4_Seg07 Rope4_Seg06
Rope4_Seg08 Rope4_Seg07
Rope4_Seg09 Rope4_Seg08
L_rear_hand01 Rope4_Seg09
L_rear_hand02 Rope4_Seg09
L_rear_hand03 Rope4_Seg09
[BasePosition]
#SegmentName Tx, Ty, Tz, Rx, Ry, Rz, BoneLength
MASTER 0.000000 0.000000 0.000000 -90.000000 0.000000 0.000000 10.000000 
root 0.000000 0.000000 0.000000 0.000000 0.000000 0.000000 10.000000 
chest 0.000000 0.000000 0.000000 0.000000 0.000000 0.000000 10.000000 
L_mid_tent01 0.000000 0.000000 0.000000 0.000000 0.000000 0.000000 10.000000 
R_mid_tent01 0.000000 0.000000 0.000000 0.000000 0.000000 0.000000 10.000000 
spine01 0.000000 0.000000 0.000000 0.000000 0.000000 0.000000 10.000000 
Bip01_Neck 0.000000 0.000000 0.000000 0.000000 0.000000 0.000000 10.000000 
L_humerus 0.000000 0.000000 0.000000 0.000000 0.000000 0.000000 10.000000 
R_humerus 0.000000 0.000000 0.000000 0.000000 0.000000 0.000000 10.000000 
weapon_bone 0.000000 0.000000 0.000000 0.000000 0.000000 0.000000 10.000000 
Bip01_Head 0.000000 0.000000 0.000000 0.000000 0.000000 0.000000 10.000000 
eye_left_bone 0.000000 0.000000 0.000000 0.000000 0.000000 0.000000 10.000000 
eye_right_bone 0.000000 0.000000 0.000000 0.000000 0.000000 0.000000 10.000000 
L_forearm 0.000000 0.000000 0.000000 0.000000 0.000000 0.000000 10.000000 
L_front_hand 0.000000 0.000000 0.000000 0.000000 0.000000 0.000000 10.000000 
L_weapon_bone 0.000000 0.000000 0.000000 0.000000 0.000000 0.000000 10.000000 
L_front_hand01_01 0.000000 0.000000 0.000000 0.000000 0.000000 0.000000 10.000000 
L_front_hand02_01 0.000000 0.000000 0.000000 0.000000 0.000000 0.000000 10.000000 
L_front_hand03_01 0.000000 0.000000 0.000000 0.000000 0.000000 0.000000 10.000000 
L_front_hand01_02 0.000000 0.000000 0.000000 0.000000 0.000000 0.000000 10.000000 
L_front_hand02_02 0.000000 0.000000 0.000000 0.000000 0.000000 0.000000 10.000000 
L_front_hand03_02 0.000000 0.000000 0.000000 0.000000 0.000000 0.000000 10.000000 
R_forearm 0.000000 0.000000 0.000000 0.000000 0.000000 0.000000 10.000000 
R_front_hand 0.000000 0.000000 0.000000 0.000000 0.000000 0.000000 10.000000 
R_weapon_bone 0.000000 0.000000 0.000000 0.000000 0.000000 0.000000 10.000000 
R_front_hand01_01 0.000000 0.000000 0.000000 0.000000 0.000000 0.000000 10.000000 
R_front_hand02_01 0.000000 0.000000 0.000000 0.000000 0.000000 0.000000 10.000000 
R_front_hand03_01 0.000000 0.000000 0.000000 0.000000 0.000000 0.000000 10.000000 
R_front_hand01_02 0.000000 0.000000 0.000000 0.000000 0.000000 0.000000 10.000000 
R_front_hand02_02 0.000000 0.000000 0.000000 0.000000 0.000000 0.000000 10.000000 
R_front_hand03_02 0.000000 0.000000 0.000000 0.000000 0.000000 0.000000 10.000000 
null_rope01_connect 0.000000 0.000000 0.000000 0.000000 0.000000 0.000000 10.000000 
Rope1_Seg01 0.000000 0.000000 0.000000 0.000000 0.000000 0.000000 10.000000 
Rope1_Seg02 0.000000 0.000000 0.000000 0.000000 0.000000 0.000000 10.000000 
Rope1_Seg03 0.000000 0.000000 0.000000 0.000000 0.000000 0.000000 10.000000 
Rope1_Seg04 0.000000 0.000000 0.000000 0.000000 0.000000 0.000000 10.000000 
Rope1_Seg05 0.000000 0.000000 0.000000 0.000000 0.000000 0.000000 10.000000 
Rope1_Seg06 0.000000 0.000000 0.000000 0.000000 0.000000 0.000000 10.000000 
Rope1_Seg07 0.000000 0.000000 0.000000 0.000000 0.000000 0.000000 10.000000 
Rope1_Seg09 0.000000 0.000000 0.000000 0.000000 0.000000 0.000000 10.000000 
L_mid_hand01 0.000000 0.000000 0.000000 0.000000 0.000000 0.000000 10.000000 
L_mid_hand02 0.000000 0.000000 0.000000 0.000000 0.000000 0.000000 10.000000 
L_mid_hand03 0.000000 0.000000 0.000000 0.000000 0.000000 0.000000 10.000000 
null_rope02_connect 0.000000 0.000000 0.000000 0.000000 0.000000 0.000000 10.000000 
Rope2_Seg01 0.000000 0.000000 0.000000 0.000000 0.000000 0.000000 10.000000 
Rope2_Seg02 0.000000 0.000000 0.000000 0.000000 0.000000 0.000000 10.000000 
Rope2_Seg03 0.000000 0.000000 0.000000 0.000000 0.000000 0.000000 10.000000 
Rope2_Seg04 0.000000 0.000000 0.000000 0.000000 0.000000 0.000000 10.000000 
Rope2_Seg05 0.000000 0.000000 0.000000 0.000000 0.000000 0.000000 10.000000 
Rope2_Seg06 0.000000 0.000000 0.000000 0.000000 0.000000 0.000000 10.000000 
Rope2_Seg07 0.000000 0.000000 0.000000 0.000000 0.000000 0.000000 10.000000 
Rope2_Seg09 0.000000 0.000000 0.000000 0.000000 0.000000 0.000000 10.000000 
R_mid_hand01 0.000000 0.000000 0.000000 0.000000 0.000000 0.000000 10.000000 
R_mid_hand02 0.000000 0.000000 0.000000 0.000000 0.000000 0.000000 10.000000 
R_mid_hand03 0.000000 0.000000 0.000000 0.000000 0.000000 0.000000 10.000000 
spine02 0.000000 0.000000 0.000000 0.000000 0.000000 0.000000 10.000000 
spine03 0.000000 0.000000 0.000000 0.000000 0.000000 0.000000 10.000000 
pelvis 0.000000 0.000000 0.000000 0.000000 0.000000 0.000000 10.000000 
null_rope03_connect 0.000000 0.000000 0.000000 0.000000 0.000000 0.000000 10.000000 
null_rope04_connect 0.000000 0.000000 0.000000 0.000000 0.000000 0.000000 10.000000 
Rope3_Seg01 0.000000 0.000000 0.000000 0.000000 0.000000 0.000000 10.000000 
Rope3_Seg02 0.000000 0.000000 0.000000 0.000000 0.000000 0.000000 10.000000 
Rope3_Seg03 0.000000 0.000000 0.000000 0.000000 0.000000 0.000000 10.000000 
Rope3_Seg04 0.000000 0.000000 0.000000 0.000000 0.000000 0.000000 10.000000 
Rope3_Seg05 0.000000 0.000000 0.000000 0.000000 0.000000 0.000000 10.000000 
Rope3_Seg06 0.000000 0.000000 0.000000 0.000000 0.000000 0.000000 10.000000 
Rope3_Seg07 0.000000 0.000000 0.000000 0.000000 0.000000 0.000000 10.000000 
Rope3_Seg08 0.000000 0.000000 0.000000 0.000000 0.000000 0.000000 10.000000 
Rope3_Seg09 0.000000 0.000000 0.000000 0.000000 0.000000 0.000000 10.000000 
R_rear_hand01 0.000000 0.000000 0.000000 0.000000 0.000000 0.000000 10.000000 
R_rear_hand02 0.000000 0.000000 0.000000 0.000000 0.000000 0.000000 10.000000 
R_rear_hand03 0.000000 0.000000 0.000000 0.000000 0.000000 0.000000 10.000000 
Rope4_Seg01 0.000000 0.000000 0.000000 0.000000 0.000000 0.000000 10.000000 
Rope4_Seg02 0.000000 0.000000 0.000000 0.000000 0.000000 0.000000 10.000000 
Rope4_Seg03 0.000000 0.000000 0.000000 0.000000 0.000000 0.000000 10.000000 
Rope4_Seg04 0.000000 0.000000 0.000000 0.000000 0.000000 0.000000 10.000000 
Rope4_Seg05 0.000000 0.000000 0.000000 0.000000 0.000000 0.000000 10.000000 
Rope4_Seg06 0.000000 0.000000 0.000000 0.000000 0.000000 0.000000 10.000000 
Rope4_Seg07 0.000000 0.000000 0.000000 0.000000 0.000000 0.000000 10.000000 
Rope4_Seg08 0.000000 0.000000 0.000000 0.000000 0.000000 0.000000 10.000000 
Rope4_Seg09 0.000000 0.000000 0.000000 0.000000 0.000000 0.000000 10.000000 
L_rear_hand01 0.000000 0.000000 0.000000 0.000000 0.000000 0.000000 10.000000 
L_rear_hand02 0.000000 0.000000 0.000000 0.000000 0.000000 0.000000 10.000000 
L_rear_hand03 0.000000 0.000000 0.000000 0.000000 0.000000 0.000000 10.000000 
#Beginning of Data. Separated by tabs
#Fr	Tx	Ty	Tz	Rx	Ry	Rz	SF
[MASTER]
22 -0.000917 4679.590820 64.064423 0.001660 0.001660 0.001660 4680.029297
23 -0.000952 4879.011230 7.753206 0.001660 0.001660 0.001660 4879.017578
[root]
22 -20.405754 -62.526546 1501.340088 -95.636406 -22.099699 -91.269073 1502.780029
23 -18.365711 -62.721558 1500.955322 -94.002594 -24.642609 -90.859932 1502.377563
[chest]
22 -84.512650 -34.090519 0.000000 -1.895245 0.929027 -178.463776 91.129311
23 -84.512650 -34.090519 0.000000 -1.916131 0.877692 -179.180374 91.129311
[L_mid_tent01]
22 27.299154 22.179237 -249.918716 -18.900999 10.900589 13.532211 252.381714
23 27.299158 22.179241 -249.918716 -19.779491 11.465734 13.262134 252.381714
[R_mid_tent01]
22 23.228794 24.509907 226.238495 -167.936813 -16.271658 24.308659 228.744751
23 23.228794 24.509907 226.238495 -166.511795 -17.151564 24.185919 228.744751
[spine01]
22 -0.361383 -0.195265 0.000000 0.002002 0.001225 27.060982 0.410763
23 -0.361383 -0.195265 0.000000 0.001996 0.001236 26.466484 0.410763
[Bip01_Neck]
22 165.484543 71.581718 0.000119 176.643677 -1.657967 43.431911 180.302734
23 165.484543 71.581718 0.000119 176.643677 -1.657967 43.431911 180.302734
[L_humerus]
22 -13.983130 -135.272980 -120.471481 -6.245935 66.698639 83.713463 181.680161
23 -13.983130 -135.272980 -120.471481 -6.124786 67.075943 83.850388 181.680161
[R_humerus]
22 -13.983309 -135.273102 125.287651 26.784271 -67.624817 68.893875 184.909012
23 -13.983309 -135.273102 125.287651 26.959560 -68.020477 68.712799 184.909012
[weapon_bone]
22 235.964890 -300.705902 0.000000 0.000000 -89.951546 -128.212341 382.234833
23 235.964890 -300.705902 0.000000 0.000000 -89.951546 -128.212341 382.234833
[Bip01_Head]
22 213.326874 186.042374 7.559204 5.200446 6.151312 -43.834995 283.155884
23 213.326813 186.042374 7.559204 5.200446 6.151311 -43.834991 283.155823
[eye_left_bone]
22 -24.626970 125.451866 -64.772606 0.000000 -90.000000 -99.840431 143.318359
23 -24.626970 125.451866 -64.772606 0.000000 -90.000000 -99.840431 143.318359
[eye_right_bone]
22 -24.626970 125.451866 64.327362 0.000000 -89.965736 80.156380 143.117676
23 -24.626970 125.451866 64.327362 0.000000 -89.965736 80.156380 143.117676
[L_forearm]
22 322.776093 0.000000 -0.000119 0.000411 -0.002311 -110.157120 322.776093
23 322.776093 0.000000 -0.000119 0.000408 -0.002311 -110.030563 322.776093
[L_front_hand]
22 241.149185 -0.042021 -3.300071 -178.667953 -1.835447 -27.422350 241.171753
23 241.149185 -0.042021 -3.300071 -178.667953 -1.835447 -27.422350 241.171753
[L_weapon_bone]
22 156.183838 0.000000 0.000000 0.000014 0.000007 0.000001 156.183838
23 156.183838 0.000000 0.000000 0.000014 0.000007 0.000001 156.183838
[L_front_hand01_01]
22 86.095154 20.947098 -0.655860 -0.314053 -0.508434 69.417068 88.609184
23 86.095154 20.947098 -0.655860 -0.321505 -0.503456 70.187172 88.609184
[L_front_hand02_01]
22 86.935165 -11.437475 24.513514 145.968994 -56.908298 -51.478970 91.046425
23 86.935165 -11.437475 24.513514 146.961212 -57.331749 -52.661201 91.046425
[L_front_hand03_01]
22 86.637497 -14.123976 -20.424902 -146.056091 55.123112 -53.303532 90.126129
23 86.637497 -14.123976 -20.424902 -146.985443 55.548393 -54.432812 90.126129
[L_front_hand01_02]
22 71.020905 -0.000179 0.000030 0.000318 -0.002326 -105.579170 71.020905
23 71.020905 -0.000179 0.000030 0.000319 -0.002325 -105.617981 71.020905
[L_front_hand02_02]
22 71.020927 -0.000119 0.000060 0.000318 -0.002326 -105.579170 71.020927
23 71.020927 -0.000119 0.000060 0.000319 -0.002325 -105.617981 71.020927
[L_front_hand03_02]
22 71.020905 -0.000060 0.000060 0.000318 -0.002326 -105.579170 71.020905
23 71.020905 -0.000060 0.000060 0.000319 -0.002325 -105.617981 71.020905
[R_forearm]
22 322.776428 -0.000060 0.000030 0.201673 0.066478 -108.812355 322.776428
23 322.776428 -0.000060 0.000030 0.201747 0.066254 -108.684692 322.776428
[R_front_hand]
22 238.847015 -0.006795 2.210259 -2.635298 -10.645461 -26.312506 238.857239
23 238.847015 -0.006795 2.210259 -2.635298 -10.645461 -26.312506 238.857239
[R_weapon_bone]
22 155.664093 0.002503 -0.000030 0.003487 0.001180 -90.988930 155.664078
23 155.664093 0.002503 -0.000030 0.003487 0.001180 -90.988930 155.664078
[R_front_hand01_01]
22 87.624611 14.231146 22.918642 -146.552551 -57.155426 52.280727 91.683487
23 87.624611 14.231146 22.918642 -148.462097 -57.932728 54.541969 91.683487
[R_front_hand02_01]
22 89.356956 14.367283 -19.491137 146.998062 55.533039 54.685249 92.579636
23 89.356956 14.367283 -19.491137 148.801514 56.299931 56.856514 92.579636
[R_front_hand03_01]
22 87.286232 -22.307278 -0.143439 0.117983 -0.440813 -70.109169 90.091743
23 87.286232 -22.307278 -0.143439 0.131531 -0.433516 -71.547462 90.091743
[R_front_hand01_02]
22 71.020905 0.000060 0.000119 0.002323 -0.000334 106.381714 71.020905
23 71.020905 0.000060 0.000119 0.002323 -0.000334 106.381714 71.020905
[R_front_hand02_02]
22 71.020844 -0.000030 -0.000119 0.002323 -0.000334 106.381714 71.020836
23 71.020844 -0.000030 -0.000119 0.002323 -0.000334 106.381714 71.020836
[R_front_hand03_02]
22 71.020905 0.000000 0.000030 0.002323 -0.000334 106.381714 71.020905
23 71.020905 0.000000 0.000030 0.002323 -0.000334 106.381714 71.020905
[null_rope01_connect]
22 328.732483 0.000000 -0.000238 -143.515991 -62.079781 -119.701828 328.732483
23 328.732483 0.000000 -0.000238 -140.550171 -62.846504 -120.016113 328.732483
[Rope1_Seg01]
22 -0.000027 0.000011 0.000107 46.781990 -0.015289 -119.397430 0.000111
23 -0.000028 0.000010 0.000112 46.772831 -2.314829 -119.337883 0.000116
[Rope1_Seg02]
22 139.999863 -0.000179 0.000000 -4.853357 0.862962 2.564201 139.999863
23 139.999863 -0.000179 0.000000 -5.429996 1.257090 2.972744 139.999863
[Rope1_Seg03]
22 139.999924 0.000060 -0.000060 -2.195058 -0.682465 2.513012 139.999924
23 139.999924 0.000060 -0.000060 -3.202342 -0.104519 2.928943 139.999924
[Rope1_Seg04]
22 139.999924 -0.000060 -0.000119 -2.377494 -0.743990 2.936059 139.999924
23 139.999924 -0.000060 -0.000119 -3.455768 -0.106367 3.473911 139.999924
[Rope1_Seg05]
22 139.999832 0.000119 -0.000060 -15.659872 8.566311 3.788977 139.999832
23 139.999832 0.000119 -0.000060 -12.515237 6.988328 4.559793 139.999832
[Rope1_Seg06]
22 139.999954 0.000119 -0.000060 -9.212537 4.216760 3.083209 139.999954
23 139.999954 0.000119 -0.000060 -6.804234 3.352638 3.004637 139.999954
[Rope1_Seg07]
22 139.999985 0.000060 0.000000 -4.051713 1.505453 1.794537 139.999985
23 139.999985 0.000060 0.000000 -3.086429 1.250246 1.714612 139.999985
[Rope1_Seg09]
22 121.602913 0.000119 -0.000089 -89.793175 -1.359789 0.847147 121.602913
23 121.602913 0.000119 -0.000089 -89.793175 -1.359789 0.847147 121.602913
[L_mid_hand01]
22 103.859421 1.038730 8.195221 130.544373 -67.584534 -38.866940 104.187431
23 103.859421 1.038730 8.195221 130.544373 -67.584534 -38.866943 104.187431
[L_mid_hand02]
22 105.572853 -4.139662 -10.864139 -168.923172 43.409309 -73.498886 106.211075
23 105.572853 -4.139662 -10.864139 -168.923172 43.409309 -73.498886 106.211075
[L_mid_hand03]
22 104.641464 17.579376 -3.913581 -6.012629 17.808178 74.893669 106.179977
23 104.641464 17.579376 -3.913581 -6.012626 17.808172 74.893661 106.179977
[null_rope02_connect]
22 328.732849 0.000179 -0.000119 -122.385025 75.664063 -28.056393 328.732849
23 328.732849 0.000179 -0.000119 -124.760208 72.509621 -32.902256 328.732849
[Rope2_Seg01]
22 0.000065 0.000046 0.000000 57.348873 3.273255 -53.264927 0.000079
23 0.000066 0.000041 0.000000 50.732059 1.227551 -51.748657 0.000078
[Rope2_Seg02]
22 139.999741 -0.000060 -0.000119 12.055764 -10.103764 -2.031527 139.999756
23 139.999741 -0.000060 -0.000119 12.734680 -10.470180 -2.559117 139.999756
[Rope2_Seg03]
22 140.000107 0.000030 0.000000 2.585652 -7.940885 1.562785 140.000107
23 140.000107 0.000030 0.000000 2.580296 -8.108881 1.539696 140.000107
[Rope2_Seg04]
22 139.999802 0.000000 -0.000060 2.813714 -6.969451 0.449834 139.999802
23 139.999802 0.000000 -0.000060 3.398999 -7.238498 -0.114240 139.999802
[Rope2_Seg05]
22 139.999985 -0.000060 0.000119 6.788074 -6.380628 -4.471692 139.999985
23 139.999985 -0.000060 0.000119 7.055185 -6.657925 -4.996655 139.999985
[Rope2_Seg06]
22 139.999893 -0.000030 -0.000119 3.855124 -4.255141 -2.830736 139.999893
23 139.999893 -0.000030 -0.000119 3.662903 -4.314617 -2.815491 139.999893
[Rope2_Seg07]
22 139.999893 0.000060 -0.000060 1.582893 -2.581392 -1.013604 139.999893
23 139.999893 0.000060 -0.000060 1.542348 -2.605731 -1.069916 139.999893
[Rope2_Seg09]
22 121.338966 0.000089 -0.000060 33.793236 -1.359788 -0.847141 121.338966
23 121.338966 0.000089 -0.000060 33.793236 -1.359788 -0.847141 121.338966
[R_mid_hand01]
22 104.680779 11.144459 -10.335981 -16.212063 45.237240 70.462845 105.778534
23 104.680779 11.144459 -10.335981 -16.212063 45.237247 70.462852 105.778534
[R_mid_hand02]
22 104.070427 2.443552 8.231699 49.067387 -67.749794 39.286469 104.424065
23 104.070427 2.443552 8.231699 49.067368 -67.749771 39.286453 104.424065
[R_mid_hand03]
22 106.028137 -11.221827 -5.996406 -177.101105 15.551026 -76.585571 106.788818
23 106.028137 -11.221827 -5.996406 -177.101105 15.551026 -76.585571 106.788818
[spine02]
22 129.756927 0.001550 0.000119 0.433765 -4.036901 -13.982474 129.756927
23 129.756927 0.001550 0.000119 0.421631 -4.038260 -13.800867 129.756927
[spine03]
22 78.613945 0.081528 -4.898995 1.939740 3.809520 17.141985 78.766487
23 78.613937 0.081523 -4.898994 1.932461 3.813218 17.027948 78.766479
[pelvis]
22 169.435242 0.051022 0.000000 -0.064214 -0.179284 15.434686 169.435257
23 169.435242 0.051022 0.000000 -0.063037 -0.179520 15.205034 169.435257
[null_rope03_connect]
22 -1.257226 -2.466202 137.391083 -141.672226 -84.859512 -151.901810 137.418976
23 -1.257226 -2.466202 137.391083 -137.400925 -86.642525 -152.847260 137.418976
[null_rope04_connect]
22 -1.259640 -2.480268 -137.844437 -141.672226 -84.859512 -151.901810 137.872513
23 -1.259640 -2.480268 -137.844437 -137.400925 -86.642525 -152.847260 137.872513
[Rope3_Seg01]
22 0.000010 0.000038 -0.000114 -130.557892 2.024305 -93.679192 0.000121
23 0.000010 0.000038 -0.000114 -130.380524 0.941078 -91.638344 0.000121
[Rope3_Seg02]
22 139.999924 -0.000119 0.000060 -0.375841 -3.596039 -1.847129 139.999924
23 139.999924 -0.000119 0.000060 -0.243539 -3.361530 -1.930833 139.999924
[Rope3_Seg03]
22 139.999924 -0.000119 0.000119 -0.225477 -4.149571 -2.474732 139.999924
23 139.999924 -0.000119 0.000119 -0.105786 -3.939348 -2.632544 139.999924
[Rope3_Seg04]
22 139.999924 0.000119 0.000000 -0.097822 -4.771709 -3.078469 139.999924
23 139.999924 0.000119 0.000000 0.008276 -4.551195 -3.280694 139.999924
[Rope3_Seg05]
22 139.999924 -0.000238 0.000060 0.230407 2.400059 3.123345 139.999924
23 139.999924 -0.000238 0.000060 0.222769 2.503632 3.549059 139.999924
[Rope3_Seg06]
22 139.999893 -0.000119 -0.000060 0.699411 3.685354 3.835087 139.999893
23 139.999893 -0.000119 -0.000060 0.649269 3.690009 4.269219 139.999893
[Rope3_Seg07]
22 139.999771 0.000060 -0.000119 0.579115 1.349010 1.571491 139.999771
23 139.999771 0.000060 -0.000119 0.562457 1.387806 1.784197 139.999771
[Rope3_Seg08]
22 139.999985 -0.000060 0.000000 0.582816 0.862194 0.985342 139.999985
23 139.999985 -0.000060 0.000000 0.569308 0.891311 1.123881 139.999985
[Rope3_Seg09]
22 90.185997 -0.000179 -0.000060 89.793228 -1.359877 -0.847183 90.185997
23 90.185997 -0.000179 -0.000060 89.793228 -1.359877 -0.847183 90.185997
[R_rear_hand01]
22 103.366196 -6.073594 -10.757982 -177.714203 24.565960 -73.910950 104.101845
23 103.366196 -6.073594 -10.757982 -177.714203 24.565960 -73.910950 104.101845
[R_rear_hand02]
22 100.509819 12.039542 -7.992327 -12.874829 36.868488 72.167213 101.543350
23 100.509819 12.039542 -7.992327 -12.874829 36.868488 72.167213 101.543350
[R_rear_hand03]
22 101.539970 5.215704 5.435467 71.484581 -71.816628 21.513813 101.819031
23 101.539970 5.215704 5.435467 71.484581 -71.816628 21.513813 101.819031
[Rope4_Seg01]
22 0.000010 0.000038 -0.000114 47.022800 10.634212 -113.570457 0.000121
23 0.000010 0.000038 -0.000114 47.342796 9.826479 -112.563934 0.000121
[Rope4_Seg02]
22 139.999985 0.000060 0.000119 0.491334 0.517681 4.312670 139.999985
23 139.999985 0.000060 0.000119 0.438557 0.623504 4.340073 139.999985
[Rope4_Seg03]
22 139.999924 0.000000 -0.000238 0.438890 0.770755 6.090849 139.999924
23 139.999924 0.000000 -0.000238 0.360774 0.920830 6.160192 139.999924
[Rope4_Seg04]
22 139.999985 0.000000 0.000119 -0.395617 -1.434078 17.224434 139.999985
23 139.999985 0.000000 0.000119 -0.693712 -0.475138 17.846893 139.999985
[Rope4_Seg05]
22 139.999802 -0.000060 -0.000119 0.473538 6.894888 -1.049951 139.999802
23 139.999802 -0.000060 -0.000119 0.572693 5.933454 -1.692157 139.999802
[Rope4_Seg06]
22 139.999924 0.000000 0.000060 1.714382 5.652317 -11.128652 139.999924
23 139.999924 0.000000 0.000060 1.893342 4.515244 -12.069467 139.999924
[Rope4_Seg07]
22 139.999802 0.000000 0.000000 0.665916 1.921339 -2.579340 139.999802
23 139.999802 0.000000 0.000000 0.649586 1.576523 -2.893154 139.999802
[Rope4_Seg08]
22 139.999924 0.000000 0.000119 -1.129410 1.050958 -1.438172 139.999924
23 139.999924 0.000000 0.000119 -1.148179 0.860955 -1.619442 139.999924
[Rope4_Seg09]
22 90.185791 0.000060 0.000060 -135.617828 2.228885 0.850567 90.185791
23 90.185791 0.000060 0.000060 -135.617828 2.228885 0.850567 90.185791
[L_rear_hand01]
22 101.696655 -8.392275 -7.654577 -12.874837 -36.868492 107.832779 102.329041
23 101.696655 -8.392275 -7.654577 -12.874829 -36.868488 107.832764 102.329041
[L_rear_hand02]
22 102.726799 -1.568258 5.773216 71.484581 71.816628 158.486160 102.900848
23 102.726799 -1.568258 5.773216 71.484581 71.816628 158.486160 102.900848
[L_rear_hand03]
22 104.552910 9.721220 -10.420293 -177.714203 -24.565966 -106.089035 105.519653
23 104.552910 9.721220 -10.420293 -177.714203 -24.565960 -106.089035 105.519653
